name D:\school\WTK\thesis\model\3dpredictsim\Results\test_WL_v2\Fal_s1_bCst_PF_Natali2010_ls135_k150_Tmtp_ig24_v2.mot
datacolumns 128
datarows 4
range 0.00000000 0.03223575
endheader
time	pelvis_tilt	pelvis_list	pelvis_rotation	pelvis_tx	pelvis_ty	pelvis_tz	hip_flexion_l	hip_adduction_l	hip_rotation_l	hip_flexion_r	hip_adduction_r	hip_rotation_r	knee_angle_l	knee_angle_r	ankle_angle_l	ankle_angle_r	subtalar_angle_l	subtalar_angle_r	tmt_angle_l	tmt_angle_r	mtp_angle_l	mtp_angle_r	lumbar_extension	lumbar_bending	lumbar_rotation	arm_flex_l	arm_add_l	arm_rot_l	arm_flex_r	arm_add_r	arm_rot_r	elbow_flex_l	elbow_flex_r	pro_sup_l	pro_sup_r	glut_med1_l/activation	glut_med2_l/activation	glut_med3_l/activation	glut_min1_l/activation	glut_min2_l/activation	glut_min3_l/activation	semimem_l/activation	semiten_l/activation	bifemlh_l/activation	bifemsh_l/activation	sar_l/activation	add_long_l/activation	add_brev_l/activation	add_mag1_l/activation	add_mag2_l/activation	add_mag3_l/activation	tfl_l/activation	pect_l/activation	grac_l/activation	glut_max1_l/activation	glut_max2_l/activation	glut_max3_l/activation	iliacus_l/activation	psoas_l/activation	quad_fem_l/activation	gem_l/activation	peri_l/activation	rect_fem_l/activation	vas_med_l/activation	vas_int_l/activation	vas_lat_l/activation	med_gas_l/activation	lat_gas_l/activation	soleus_l/activation	tib_post_l/activation	flex_dig_l/activation	flex_hal_l/activation	tib_ant_l/activation	per_brev_l/activation	per_long_l/activation	per_tert_l/activation	ext_dig_l/activation	ext_hal_l/activation	ercspn_l/activation	intobl_l/activation	extobl_l/activation	glut_med1_r/activation	glut_med2_r/activation	glut_med3_r/activation	glut_min1_r/activation	glut_min2_r/activation	glut_min3_r/activation	semimem_r/activation	semiten_r/activation	bifemlh_r/activation	bifemsh_r/activation	sar_r/activation	add_long_r/activation	add_brev_r/activation	add_mag1_r/activation	add_mag2_r/activation	add_mag3_r/activation	tfl_r/activation	pect_r/activation	grac_r/activation	glut_max1_r/activation	glut_max2_r/activation	glut_max3_r/activation	iliacus_r/activation	psoas_r/activation	quad_fem_r/activation	gem_r/activation	peri_r/activation	rect_fem_r/activation	vas_med_r/activation	vas_int_r/activation	vas_lat_r/activation	med_gas_r/activation	lat_gas_r/activation	soleus_r/activation	tib_post_r/activation	flex_dig_r/activation	flex_hal_r/activation	tib_ant_r/activation	per_brev_r/activation	per_long_r/activation	per_tert_r/activation	ext_dig_r/activation	ext_hal_r/activation	ercspn_r/activation	intobl_r/activation	extobl_r/activation	
          0.00000000	         -2.92989560	         -1.68119670	          4.56942440	          0.00000000	          0.91819450	         -0.00265435	        -16.55524340	         -0.41215887	          9.89587964	         31.19145605	          2.85474892	         -2.14205542	         -4.54923047	        -14.60853234	          4.03354163	          7.12006292	         13.28939876	         -1.10534577	          1.89064275	         -7.14277816	         11.06245723	         30.49113107	         -2.82747497	          0.35068734	         -1.71474364	          4.46251812	        -13.44998816	         10.78360715	         -5.64647633	        -13.53924713	          3.03414086	         35.15119500	         20.68913096	         86.51662706	         86.51662706	          0.33541954	          0.13435296	          0.11393854	          0.40954652	          0.27621461	          0.14649459	          0.05000038	          0.05000013	          0.05000011	          0.06907687	          0.13905558	          0.05000002	          0.05000003	          0.05000005	          0.05000018	          0.05000016	          0.41523129	          0.05000015	          0.05000014	          0.05894804	          0.05000390	          0.05000037	          0.52896044	          0.69735440	          0.05000013	          0.05000166	          0.06148453	          0.26653810	          0.05000034	          0.05000035	          0.05000034	          0.34790408	          0.44100160	          0.33308314	          0.25238096	          0.22835359	          0.29192509	          0.05000008	          0.05428882	          0.15134741	          0.05000023	          0.05000008	          0.05000032	          0.05000000	          0.05000000	          0.05000000	          0.05000030	          0.05000012	          0.05895436	          0.05000005	          0.05000008	          0.05000049	          0.18534045	          0.07074421	          0.28617722	          0.05000258	          0.05000068	          0.12291547	          0.17114278	          0.15449766	          0.16614769	          0.12735804	          0.05895438	          0.05002130	          0.15377322	          0.05895453	          0.05895470	          0.10820308	          0.05000004	          0.05000005	          0.18003257	          0.05000046	          0.05000021	          0.05000006	          0.05150529	          0.05536421	          0.05000560	          0.05013635	          0.05000063	          0.05000002	          0.05418758	          0.05000321	          0.05388491	          0.39464658	          0.05000013	          0.22266220	          0.11804560	          0.38410926	          0.11206673	          0.06951234	          0.11400480	          0.09974529	
          0.01074525	         -2.92959479	         -1.81144388	          4.90581789	          0.01582484	          0.91725406	         -0.00249931	        -16.64877875	         -0.71682458	          9.81405414	         30.67683870	          3.29915613	         -1.99465013	         -6.01930964	        -14.46723317	          3.76288897	          6.60850334	         14.20102573	         -1.20105532	          1.30433029	         -7.19547393	         12.50128413	         30.88236531	         -2.64032320	          0.54945977	         -1.78964124	          4.18197708	        -13.45404299	         11.01941745	         -6.35357837	        -13.53760484	          2.83877278	         36.32534552	         20.25231971	         86.51662706	         86.51662706	          0.28447391	          0.11394658	          0.09663284	          0.34734198	          0.23426138	          0.12424408	          0.05000102	          0.05000024	          0.05000013	          0.05858516	          0.11793499	          0.07144420	          0.06951271	          0.05000473	          0.05000314	          0.05000071	          0.35216345	          0.06951508	          0.05001060	          0.05000082	          0.05000058	          0.05000071	          0.44861853	          0.65177895	          0.05000019	          0.05000050	          0.05214595	          0.23940593	          0.05000044	          0.05000046	          0.05000047	          0.29506222	          0.37451850	          0.32371135	          0.24225583	          0.19368126	          0.26326330	          0.05000003	          0.05895464	          0.13273567	          0.05000022	          0.05000005	          0.05000020	          0.05000002	          0.05204003	          0.06577954	          0.05895437	          0.05895440	          0.05000006	          0.05895446	          0.05895445	          0.05895430	          0.16344877	          0.05999919	          0.25614523	          0.05000025	          0.05000012	          0.18878671	          0.33363510	          0.13103189	          0.20624414	          0.11433689	          0.05000013	          0.07928993	          0.13758520	          0.05000022	          0.05000031	          0.09176870	          0.06578340	          0.05364373	          0.49917328	          0.26991232	          0.11057727	          0.05000039	          0.11052706	          0.11009953	          0.09852211	          0.05944369	          0.06138704	          0.05651416	          0.05000009	          0.05000070	          0.05000041	          0.50268559	          0.07228755	          0.18884311	          0.21900233	          0.46969998	          0.18187497	          0.05895436	          0.09668902	          0.08459534	
          0.02149050	         -2.92557173	         -1.94408863	          5.21286674	          0.03201352	          0.91643783	         -0.00234156	        -16.66967110	         -1.01354671	          9.72203843	         30.07405326	          3.70661521	         -1.80304565	         -7.62442172	        -14.81723563	          3.40862723	          5.93154207	         15.09170410	         -1.29942711	          0.52364956	         -7.34537184	         14.24533664	         31.33717780	         -2.42302669	          0.75661581	         -1.85622786	          3.80615873	        -13.45661684	         11.18408788	         -7.09180712	        -13.53595370	          2.68319418	         37.49500637	         19.84983591	         86.51662706	         86.51662706	          0.24126619	          0.09663965	          0.08195568	          0.29458546	          0.19868027	          0.10537311	          0.05000311	          0.05000175	          0.05064610	          0.05000010	          0.10002233	          0.15308957	          0.05895487	          0.05895491	          0.05895496	          0.05895638	          0.29867470	          0.05895711	          0.05843244	          0.05004703	          0.05894950	          0.05895490	          0.38047947	          0.62831018	          0.05895448	          0.05895481	          0.05895454	          0.22312758	          0.13482486	          0.12551171	          0.09292986	          0.25024625	          0.31763422	          0.29067229	          0.20546055	          0.16426390	          0.22327736	          0.05000002	          0.05000038	          0.14147110	          0.05000010	          0.05000003	          0.05000017	          0.06206387	          0.06951238	          0.06051352	          0.05000001	          0.05000004	          0.10255689	          0.05000008	          0.05000008	          0.05000006	          0.13862323	          0.05088617	          0.21724025	          0.05000021	          0.05895658	          0.16011264	          0.35062646	          0.34205951	          0.21204616	          0.10066515	          0.05000025	          0.08086228	          0.16279795	          0.05001044	          0.09352907	          0.12383825	          0.05579184	          0.06951079	          0.68543281	          0.22891631	          0.09378212	          0.05895599	          0.13364914	          0.13643873	          0.12142580	          0.06383516	          0.06951212	          0.05000043	          0.05000012	          0.05000038	          0.05000093	          0.45325253	          0.06130806	          0.21955690	          0.18574057	          0.40404634	          0.15425069	          0.05000000	          0.08200326	          0.07174645	
          0.03223575	         -2.91807039	         -2.08704201	          5.49165162	          0.04852335	          0.91577443	         -0.00221142	        -16.62826293	         -1.30716591	          9.61016181	         29.31623953	          4.01393501	         -1.55202152	         -9.32810545	        -15.23665958	          2.94444750	          5.35225056	         15.93080347	         -1.42644432	         -0.47082799	         -7.54344190	         16.30105076	         31.99952167	         -2.17804268	          0.97898308	         -1.91275183	          3.34469691	        -13.45123041	         11.28508472	         -7.85010142	        -13.53916907	          2.57711257	         38.64906354	         19.46912721	         86.51662706	         86.51662706	          0.38006736	          0.08196142	          0.06950777	          0.37092176	          0.16850353	          0.08936839	          0.05000084	          0.05000013	          0.05000008	          0.05000125	          0.08483051	          0.12983736	          0.05000048	          0.05000052	          0.05000072	          0.05000179	          0.35664498	          0.05000279	          0.05000029	          0.05000126	          0.05000071	          0.05000065	          0.32269000	          0.60975474	          0.05000015	          0.05000066	          0.05000031	          0.18923757	          0.11434684	          0.10644823	          0.07881512	          0.21223722	          0.26938987	          0.24652309	          0.17425389	          0.13931450	          0.18936460	          0.05000025	          0.05000058	          0.16806973	          0.05000029	          0.05981778	          0.05000029	          0.05263726	          0.05895439	          0.05132235	          0.25050882	          0.23034056	          0.25403395	          0.37625605	          0.22887206	          0.17665217	          0.12120578	          0.06163796	          0.18424451	          0.07602691	          0.05000202	          0.13579372	          0.29737108	          0.29010535	          0.17983937	          0.11368035	          0.05000029	          0.06858102	          0.13807157	          0.05000021	          0.10577426	          0.10502914	          0.05000058	          0.05895308	          0.58132483	          0.19414708	          0.18002030	          0.05000139	          0.11334975	          0.11571568	          0.10298297	          0.05413949	          0.05895423	          0.05000055	          0.05000047	          0.05000099	          0.05000083	          0.55205432	          0.20785423	          0.18620919	          0.29232033	          0.48151142	          0.14898016	          0.05938174	          0.11394620	          0.06084914	
